<svg id="Layer_1" data-name="Layer 1" xmlns="http://www.w3.org/2000/svg" viewBox="0 0 23.19 23.19"><circle cx="11.48" cy="11.62" r="7.61" style="fill:#fff;stroke:#fff;stroke-miterlimit:10"/><path d="M25.54,1.87A11.1,11.1,0,1,0,36.63,13,11.1,11.1,0,0,0,25.54,1.87Zm0,19.5A8.41,8.41,0,1,1,34,13,8.4,8.4,0,0,1,25.54,21.37Z" transform="translate(-13.94 -1.37)" style="fill:#282a70;stroke:#282a70;stroke-miterlimit:10"/><g id="Group_3" data-name="Group 3"><path id="Path_11" data-name="Path 11" d="M23.84,10.78l.31-.22.36.5-.31.22Z" transform="translate(-13.94 -1.37)" style="fill:#b22335"/><path id="Path_13" data-name="Path 13" d="M22.72,10.43l.84.13.1-.07-.95-1.32L23,9l1,1.33.09-.07.14-.84L21.59,7.17a.1.1,0,0,0-.14,0s0,0,0,0,0,0,0,0Z" transform="translate(-13.94 -1.37)" style="fill:#b22335"/><path id="Path_16" data-name="Path 16" d="M29.36,17.54a.2.2,0,0,0-.16-.22.17.17,0,0,0-.14,0l-.34.25a.18.18,0,0,0,0,.26.22.22,0,0,0,.13.08.17.17,0,0,0,.14,0l.34-.25A.2.2,0,0,0,29.36,17.54Z" transform="translate(-13.94 -1.37)" style="fill:#b22335"/><path id="Path_17" data-name="Path 17" d="M26.15,13.34l-.42-.59-1-1.41-.31.22,4.14,5.75.3-.22Z" transform="translate(-13.94 -1.37)" style="fill:#b22335"/><path id="Path_18" data-name="Path 18" d="M29.52,17.9s0,0,0,0l-.34.24-.05,0a.22.22,0,0,0,.16.15l.31.05.05-.31A.21.21,0,0,0,29.52,17.9Z" transform="translate(-13.94 -1.37)" style="fill:#b22335"/></g><g id="fireworks"><path id="Path_21" data-name="Path 21" d="M22,13.59l-.33.6.31.61v0c1.79.19,4.4,1.76,5.67,2.6a.08.08,0,0,0,.1,0,.08.08,0,0,0,0-.09,19.07,19.07,0,0,0-5.73-3.75Z" transform="translate(-13.94 -1.37)" style="fill:#3d3b6e"/><path id="Path_23" data-name="Path 23" d="M25,18a.76.76,0,0,1,.11.33v.16l.14.07.12.09A8.24,8.24,0,0,1,28,18.27a.11.11,0,0,0,.1-.09.1.1,0,0,0-.08-.09A6.66,6.66,0,0,0,25,18Z" transform="translate(-13.94 -1.37)" style="fill:#3d3b6e"/><path id="Path_25" data-name="Path 25" d="M21.46,13.28a.08.08,0,0,0,0-.11h-.05l-1,.16-.71-.75a.08.08,0,0,0-.11,0,.05.05,0,0,0,0,0l-.17,1-.93.43a.08.08,0,0,0,0,.11l0,0,.91.47.14,1a.07.07,0,0,0,.08.07l.05,0,.73-.72,1,.19a.11.11,0,0,0,.07,0h0a.1.1,0,0,0,0-.09L21,14.18Z" transform="translate(-13.94 -1.37)" style="fill:#3d3b6e"/><path id="Path_27" data-name="Path 27" d="M24.43,18.37a.07.07,0,0,0-.08-.07s0,0-.05,0l-.37.34-.5-.11a.07.07,0,0,0-.09.06.06.06,0,0,0,0,0l.21.46-.26.44h0a.08.08,0,0,0,.05.1h0l.51-.06.33.38a.08.08,0,0,0,.11,0l0-.05.1-.49.46-.2a.07.07,0,0,0,0-.1s0,0,0,0l-.44-.25Z" transform="translate(-13.94 -1.37)" style="fill:#b22436"/></g><g id="Group_7" data-name="Group 7"><path id="Path_30" data-name="Path 30" d="M25.75,11.86A6.41,6.41,0,0,1,30,9.54a.42.42,0,0,1,.37.38.4.4,0,0,1-.22.35,4.16,4.16,0,0,0-3.63,3Z" transform="translate(-13.94 -1.37)" style="fill:#3e3b6e;stroke:#3e3b6e;stroke-miterlimit:9.99894789439404;stroke-width:0.249973697359851px"/><path id="Path_31" data-name="Path 31" d="M30.63,11.49a1.18,1.18,0,0,1,0-.72c0-.1.09-.2.16-.39A2.22,2.22,0,0,0,30.9,10a1.71,1.71,0,0,1,.89.19,1.68,1.68,0,0,1,.77.87A1.55,1.55,0,0,0,30.63,11.49Z" transform="translate(-13.94 -1.37)" style="fill:#b22436;stroke:#b22436;stroke-miterlimit:9.99894789439404;stroke-width:0.249973697359851px"/><path id="Path_32" data-name="Path 32" d="M27,14a4.06,4.06,0,0,1,1.58-2.89,2,2,0,0,0,.54.07,1.94,1.94,0,0,0,.75-.16.78.78,0,0,0-.06.52.73.73,0,0,0,.21.35,5,5,0,0,0,.44,4L30,15.79a4.14,4.14,0,0,1-.84-2.33A3.89,3.89,0,0,1,29.44,12a5.13,5.13,0,0,0-.85,3.3l-.45-.3a4,4,0,0,1,.34-2.71,5.5,5.5,0,0,0-.87,1.27,5.28,5.28,0,0,0-.31.78Z" transform="translate(-13.94 -1.37)" style="fill:#3e3b6e;stroke:#3e3b6e;stroke-miterlimit:9.99894789439404;stroke-width:0.249973697359851px"/></g><circle cx="29.46" cy="10.76" r="0.05" transform="translate(-4.97 33.13) rotate(-69.27)" style="fill:#b22335;stroke:#b22335;stroke-miterlimit:9.99894789439404;stroke-width:0.249973697359851px"/><g id="star"><g id="Group_14" data-name="Group 14"><path id="Path_37" data-name="Path 37" d="M24.32,22.48l.84-.05.32-.8.32.8.84.05L26,23l.21.84-.73-.46-.73.46L25,23Z" transform="translate(-13.94 -1.37)" style="fill:#fff"/></g></g><g id="star-2" data-name="star"><g id="Group_14-2" data-name="Group 14"><path id="Path_37-2" data-name="Path 37" d="M21.82,22.24l.85-.06.31-.8.32.8.85.06-.65.55.21.83L23,23.16l-.72.46.21-.83Z" transform="translate(-13.94 -1.37)" style="fill:#fff"/></g></g><g id="star-3" data-name="star"><g id="Group_14-3" data-name="Group 14"><path id="Path_37-3" data-name="Path 37" d="M19.73,21.5l.85-.05.31-.8.32.8.85.05-.65.55.21.84-.73-.46-.72.46.21-.84Z" transform="translate(-13.94 -1.37)" style="fill:#fff"/></g></g><g id="star-4" data-name="star"><g id="Group_14-4" data-name="Group 14"><path id="Path_37-4" data-name="Path 37" d="M17.83,20l.85-.05.31-.8.32.8.85.05-.65.55.21.83L19,20.94l-.72.45.21-.83Z" transform="translate(-13.94 -1.37)" style="fill:#fff"/></g></g><g id="star-5" data-name="star"><g id="Group_14-5" data-name="Group 14"><path id="Path_37-5" data-name="Path 37" d="M16.36,18.36l.84-.05.32-.8.32.8.84.05-.64.55.21.84-.73-.46-.73.46.22-.84Z" transform="translate(-13.94 -1.37)" style="fill:#fff"/></g></g><g id="star-6" data-name="star"><g id="Group_14-6" data-name="Group 14"><path id="Path_37-6" data-name="Path 37" d="M15.2,16.49l.84-.06.32-.79.32.79.84.06-.64.55.21.83-.73-.46-.72.46.21-.83Z" transform="translate(-13.94 -1.37)" style="fill:#fff"/></g></g><g id="star-7" data-name="star"><g id="Group_14-7" data-name="Group 14"><path id="Path_37-7" data-name="Path 37" d="M14.58,14l.84-.06.32-.79.32.79.84.06-.64.55.21.83-.73-.46-.73.46.22-.83Z" transform="translate(-13.94 -1.37)" style="fill:#fff"/></g></g><g id="star-8" data-name="star"><g id="Group_14-8" data-name="Group 14"><path id="Path_37-8" data-name="Path 37" d="M29.14,22.24l-.84-.06-.32-.8-.32.8-.84.06.64.55-.21.83.73-.46.73.46-.22-.83Z" transform="translate(-13.94 -1.37)" style="fill:#fff"/></g></g><g id="star-9" data-name="star"><g id="Group_14-9" data-name="Group 14"><path id="Path_37-9" data-name="Path 37" d="M31.23,21.5l-.84-.05-.32-.8-.32.8-.85.05.65.55-.21.84.73-.46.72.46-.21-.84Z" transform="translate(-13.94 -1.37)" style="fill:#fff"/></g></g><g id="star-10" data-name="star"><g id="Group_14-10" data-name="Group 14"><path id="Path_37-10" data-name="Path 37" d="M33.13,20,32.29,20l-.32-.8-.32.8-.84.05.64.55-.21.83.73-.45.73.45-.22-.83Z" transform="translate(-13.94 -1.37)" style="fill:#fff"/></g></g><g id="star-11" data-name="star"><g id="Group_14-11" data-name="Group 14"><path id="Path_37-11" data-name="Path 37" d="M34.6,18.36l-.84-.05-.32-.8-.32.8-.84.05.65.55-.22.84.73-.46.73.46L34,18.91Z" transform="translate(-13.94 -1.37)" style="fill:#fff"/></g></g><g id="star-12" data-name="star"><g id="Group_14-12" data-name="Group 14"><path id="Path_37-12" data-name="Path 37" d="M35.76,16.49l-.84-.06-.32-.79-.32.79-.84.06.64.55-.21.83.73-.46.73.46L35.11,17Z" transform="translate(-13.94 -1.37)" style="fill:#fff"/></g></g><g id="star-13" data-name="star"><g id="Group_14-13" data-name="Group 14"><path id="Path_37-13" data-name="Path 37" d="M36.38,14l-.84-.06-.32-.79-.32.79-.84.06.65.55-.22.83.73-.46.73.46-.21-.83Z" transform="translate(-13.94 -1.37)" style="fill:#fff"/></g></g><line x1="20.46" y1="9.57" x2="21.81" y2="9.26" style="fill:none;stroke:#e8de27;stroke-miterlimit:10;stroke-width:0.25px"/><line x1="19.78" y1="7.65" x2="21.04" y2="7.05" style="fill:none;stroke:#e8de27;stroke-miterlimit:10;stroke-width:0.25px"/><line x1="18.7" y1="5.93" x2="19.79" y2="5.06" style="fill:none;stroke:#e8de27;stroke-miterlimit:10;stroke-width:0.25px"/><line x1="17.26" y1="4.49" x2="18.13" y2="3.4" style="fill:none;stroke:#e8de27;stroke-miterlimit:10;stroke-width:0.25px"/><line x1="15.54" y1="3.41" x2="16.14" y2="2.16" style="fill:none;stroke:#e8de27;stroke-miterlimit:10;stroke-width:0.25px"/><line x1="13.62" y1="2.74" x2="13.93" y2="1.38" style="fill:none;stroke:#e8de27;stroke-miterlimit:10;stroke-width:0.25px"/><line x1="11.6" y1="2.51" x2="11.6" y2="1.12" style="fill:none;stroke:#e8de27;stroke-miterlimit:10;stroke-width:0.25px"/><line x1="9.57" y1="2.74" x2="9.26" y2="1.38" style="fill:none;stroke:#e8de27;stroke-miterlimit:10;stroke-width:0.25px"/><line x1="7.65" y1="3.41" x2="7.05" y2="2.16" style="fill:none;stroke:#e8de27;stroke-miterlimit:10;stroke-width:0.25px"/><line x1="5.93" y1="4.49" x2="5.06" y2="3.4" style="fill:none;stroke:#e8de27;stroke-miterlimit:10;stroke-width:0.25px"/><line x1="4.49" y1="5.93" x2="3.4" y2="5.06" style="fill:none;stroke:#e8de27;stroke-miterlimit:10;stroke-width:0.25px"/><line x1="3.41" y1="7.65" x2="2.16" y2="7.05" style="fill:none;stroke:#e8de27;stroke-miterlimit:10;stroke-width:0.25px"/><line x1="2.74" y1="9.57" x2="1.38" y2="9.26" style="fill:none;stroke:#e8de27;stroke-miterlimit:10;stroke-width:0.25px"/><path d="M17.12,12.91h0a8.42,8.42,0,0,1,16.84,0h2.68a11.1,11.1,0,0,0-22.2,0h2.68Z" transform="translate(-13.94 -1.37)" style="fill:#e4e4e4"/><text transform="translate(2.61 11.18) rotate(-85.51) scale(1.03 1)" style="font-size:2.005199909210205px;fill:#b22335;font-family:Roboto-Bold, Roboto;font-weight:700">R</text><text transform="matrix(0.24, -1.01, 0.97, 0.23, 2.72, 9.82)" style="font-size:2.005199909210205px;fill:#b22335;font-family:Roboto-Bold, Roboto;font-weight:700">E</text><text transform="translate(3 8.65) rotate(-67.71) scale(1.03 1)" style="font-size:2.005199909210205px;fill:#b22335;font-family:Roboto-Bold, Roboto;font-weight:700">P</text><text transform="translate(3.53 7.36) rotate(-58.14) scale(1.03 1)" style="font-size:2.005199909210205px;fill:#b22335;font-family:Roboto-Bold, Roboto;font-weight:700">U</text><text transform="matrix(0.68, -0.78, 0.75, 0.66, 4.28, 6.17)" style="font-size:2.005199909210205px;fill:#b22335;font-family:Roboto-Bold, Roboto;font-weight:700">B</text><text transform="translate(5.17 5.15) rotate(-40.75) scale(1.03 1)" style="font-size:2.005199909210205px;fill:#b22335;font-family:Roboto-Bold, Roboto;font-weight:700">L</text><text transform="matrix(0.85, -0.59, 0.57, 0.82, 6.08, 4.4)" style="font-size:2.005199909210205px;fill:#b22335;font-family:Roboto-Bold, Roboto;font-weight:700">I</text><text transform="translate(6.63 3.99) rotate(-27.97) scale(1.03 1)" style="font-size:2.005199909210205px;fill:#b22335;font-family:Roboto-Bold, Roboto;font-weight:700">C</text><text transform="translate(7.89 3.35) rotate(-21.63) scale(1.03 1)" style="font-size:2.005199909210205px;fill:#231f20;font-family:Roboto-Bold, Roboto;font-weight:700"> </text><text transform="translate(8.42 3.13) rotate(-15.92) scale(1.03 1)" style="font-size:2.005199909210205px;fill:#3d3b6e;font-family:Roboto-Bold, Roboto;font-weight:700">F</text><text transform="matrix(1.02, -0.14, 0.14, 0.99, 9.56, 2.8)" style="font-size:2.005199909210205px;fill:#3d3b6e;font-family:Roboto-Bold, Roboto;font-weight:700">R</text><text transform="translate(10.9 2.62) rotate(-0.01) scale(1.03 1)" style="font-size:2.005199909210205px;fill:#3d3b6e;font-family:Roboto-Bold, Roboto;font-weight:700">E</text><text transform="translate(12.14 2.63) rotate(7.69) scale(1.03 1)" style="font-size:2.005199909210205px;fill:#3d3b6e;font-family:Roboto-Bold, Roboto;font-weight:700">E</text><text transform="translate(13.32 2.78) rotate(15.82) scale(1.03 1)" style="font-size:2.005199909210205px;fill:#3d3b6e;font-family:Roboto-Bold, Roboto;font-weight:700">D</text><text transform="translate(14.66 3.16) rotate(24.89) scale(1.03 1)" style="font-size:2.005199909210205px;fill:#3d3b6e;font-family:Roboto-Bold, Roboto;font-weight:700">O</text><text transform="translate(16 3.77) rotate(35.58) scale(1.03 1)" style="font-size:2.005199909210205px;fill:#3d3b6e;font-family:Roboto-Bold, Roboto;font-weight:700">M</text><text transform="translate(17.48 4.88) rotate(43.41) scale(1.03 1)" style="font-size:2.005199909210205px;fill:#231f20;font-family:Roboto-Bold, Roboto;font-weight:700"> </text><text transform="matrix(0.67, 0.79, -0.77, 0.64, 17.92, 5.27)" style="font-size:2.005199909210205px;fill:#b22335;font-family:Roboto-Bold, Roboto;font-weight:700">P</text><text transform="matrix(0.55, 0.88, -0.85, 0.53, 18.7, 6.18)" style="font-size:2.005199909210205px;fill:#b22335;font-family:Roboto-Bold, Roboto;font-weight:700">A</text><text transform="translate(19.45 7.39) rotate(67.57) scale(1.03 1)" style="font-size:2.005199909210205px;fill:#b22335;font-family:Roboto-Bold, Roboto;font-weight:700">R</text><text transform="translate(19.95 8.62) rotate(76.55) scale(1.03 1)" style="font-size:2.005199909210205px;fill:#b22335;font-family:Roboto-Bold, Roboto;font-weight:700">T</text><text transform="matrix(0.07, 1.03, -1, 0.07, 20.26, 9.94)" style="font-size:2.005199909210205px;fill:#b22335;font-family:Roboto-Bold, Roboto;font-weight:700">Y</text></svg>